<svg width="30" height="31" viewBox="0 0 30 31" fill="none" xmlns="http://www.w3.org/2000/svg">
<path d="M13.4856 17.7274L10.8448 15.0867C10.6222 14.8641 10.3491 14.7528 10.0253 14.7528C9.70154 14.7528 9.41824 14.8742 9.17542 15.1171C8.95283 15.3397 8.84153 15.623 8.84153 15.967C8.84153 16.311 8.95283 16.5943 9.17542 16.8168L12.6357 20.2771C12.8583 20.4997 13.1416 20.611 13.4856 20.611C13.8296 20.611 14.1128 20.4997 14.3354 20.2771L21.2256 13.3869C21.4482 13.1644 21.5595 12.8912 21.5595 12.5674C21.5595 12.2436 21.4381 11.9604 21.1952 11.7175C20.9726 11.4949 20.6893 11.3836 20.3453 11.3836C20.0013 11.3836 19.718 11.4949 19.4955 11.7175L13.4856 17.7274ZM15.1853 27.6832C13.5058 27.6832 11.9274 27.3643 10.4502 26.7265C8.97306 26.0895 7.68812 25.2246 6.59541 24.1319C5.5027 23.0392 4.63784 21.7543 4.00083 20.2771C3.36301 18.7999 3.0441 17.2215 3.0441 15.542C3.0441 13.8625 3.36301 12.2841 4.00083 10.8069C4.63784 9.32975 5.5027 8.04481 6.59541 6.9521C7.68812 5.85939 8.97306 4.99412 10.4502 4.3563C11.9274 3.71929 13.5058 3.40079 15.1853 3.40079C16.8649 3.40079 18.4432 3.71929 19.9204 4.3563C21.3976 4.99412 22.6825 5.85939 23.7752 6.9521C24.8679 8.04481 25.7328 9.32975 26.3698 10.8069C27.0076 12.2841 27.3265 13.8625 27.3265 15.542C27.3265 17.2215 27.0076 18.7999 26.3698 20.2771C25.7328 21.7543 24.8679 23.0392 23.7752 24.1319C22.6825 25.2246 21.3976 26.0895 19.9204 26.7265C18.4432 27.3643 16.8649 27.6832 15.1853 27.6832Z" fill="#2D2D1F"/>
</svg>
